<mxfile host="app.diagrams.net" agent="Mozilla/5.0 (X11; Ubuntu; Linux x86_64; rv:137.0) Gecko/20100101 Firefox/137.0" version="26.2.14">
  <diagram name="P치gina-1" id="9eqfhAG_SzzrAvMryFbj">
    <mxGraphModel dx="1072" dy="1247" grid="0" gridSize="10" guides="1" tooltips="1" connect="1" arrows="1" fold="1" page="0" pageScale="1" pageWidth="827" pageHeight="1169" math="0" shadow="0">
      <root>
        <mxCell id="0" />
        <mxCell id="1" parent="0" />
        <mxCell id="2uBrbljEN8BobizmQPsf-3" value="" style="edgeStyle=none;curved=1;rounded=0;orthogonalLoop=1;jettySize=auto;html=1;fontSize=12;startSize=8;endSize=8;" edge="1" parent="1" source="2uBrbljEN8BobizmQPsf-1" target="2uBrbljEN8BobizmQPsf-2">
          <mxGeometry relative="1" as="geometry" />
        </mxCell>
        <mxCell id="2uBrbljEN8BobizmQPsf-1" value="inicio" style="ellipse;whiteSpace=wrap;html=1;" vertex="1" parent="1">
          <mxGeometry x="135" y="-88" width="120" height="80" as="geometry" />
        </mxCell>
        <mxCell id="2uBrbljEN8BobizmQPsf-8" value="" style="edgeStyle=none;curved=1;rounded=0;orthogonalLoop=1;jettySize=auto;html=1;fontSize=12;startSize=8;endSize=8;" edge="1" parent="1" source="2uBrbljEN8BobizmQPsf-2" target="2uBrbljEN8BobizmQPsf-7">
          <mxGeometry relative="1" as="geometry" />
        </mxCell>
        <mxCell id="2uBrbljEN8BobizmQPsf-2" value="ingrese contrase침a" style="shape=parallelogram;perimeter=parallelogramPerimeter;whiteSpace=wrap;html=1;fixedSize=1;" vertex="1" parent="1">
          <mxGeometry x="126" y="88" width="138" height="60" as="geometry" />
        </mxCell>
        <mxCell id="2uBrbljEN8BobizmQPsf-10" value="" style="edgeStyle=none;curved=1;rounded=0;orthogonalLoop=1;jettySize=auto;html=1;fontSize=12;startSize=8;endSize=8;" edge="1" parent="1" source="2uBrbljEN8BobizmQPsf-7" target="2uBrbljEN8BobizmQPsf-9">
          <mxGeometry relative="1" as="geometry" />
        </mxCell>
        <mxCell id="2uBrbljEN8BobizmQPsf-11" value="si" style="edgeLabel;html=1;align=center;verticalAlign=middle;resizable=0;points=[];fontSize=12;" vertex="1" connectable="0" parent="2uBrbljEN8BobizmQPsf-10">
          <mxGeometry x="-0.1507" y="2" relative="1" as="geometry">
            <mxPoint as="offset" />
          </mxGeometry>
        </mxCell>
        <mxCell id="2uBrbljEN8BobizmQPsf-13" value="" style="edgeStyle=none;curved=1;rounded=0;orthogonalLoop=1;jettySize=auto;html=1;fontSize=12;startSize=8;endSize=8;" edge="1" parent="1" source="2uBrbljEN8BobizmQPsf-7" target="2uBrbljEN8BobizmQPsf-12">
          <mxGeometry relative="1" as="geometry" />
        </mxCell>
        <mxCell id="2uBrbljEN8BobizmQPsf-7" value="Contrase침a ingresada =python123" style="rhombus;whiteSpace=wrap;html=1;" vertex="1" parent="1">
          <mxGeometry x="119" y="238" width="152" height="130" as="geometry" />
        </mxCell>
        <mxCell id="2uBrbljEN8BobizmQPsf-15" style="edgeStyle=none;curved=1;rounded=0;orthogonalLoop=1;jettySize=auto;html=1;entryX=0;entryY=0.5;entryDx=0;entryDy=0;fontSize=12;startSize=8;endSize=8;" edge="1" parent="1" source="2uBrbljEN8BobizmQPsf-9" target="2uBrbljEN8BobizmQPsf-14">
          <mxGeometry relative="1" as="geometry" />
        </mxCell>
        <mxCell id="2uBrbljEN8BobizmQPsf-9" value="imprime acceso concedido" style="shape=parallelogram;perimeter=parallelogramPerimeter;whiteSpace=wrap;html=1;fixedSize=1;" vertex="1" parent="1">
          <mxGeometry x="-137" y="273" width="120" height="60" as="geometry" />
        </mxCell>
        <mxCell id="2uBrbljEN8BobizmQPsf-16" style="edgeStyle=none;curved=1;rounded=0;orthogonalLoop=1;jettySize=auto;html=1;entryX=1;entryY=0.5;entryDx=0;entryDy=0;fontSize=12;startSize=8;endSize=8;" edge="1" parent="1" source="2uBrbljEN8BobizmQPsf-12" target="2uBrbljEN8BobizmQPsf-14">
          <mxGeometry relative="1" as="geometry" />
        </mxCell>
        <mxCell id="2uBrbljEN8BobizmQPsf-12" value="imprime contrase침a incorrecta" style="shape=parallelogram;perimeter=parallelogramPerimeter;whiteSpace=wrap;html=1;fixedSize=1;" vertex="1" parent="1">
          <mxGeometry x="407" y="273" width="156" height="60" as="geometry" />
        </mxCell>
        <mxCell id="2uBrbljEN8BobizmQPsf-14" value="fin" style="ellipse;whiteSpace=wrap;html=1;" vertex="1" parent="1">
          <mxGeometry x="135" y="497" width="120" height="80" as="geometry" />
        </mxCell>
      </root>
    </mxGraphModel>
  </diagram>
</mxfile>
